HIERARCHY
ROOT Hips
{
	OFFSET 0.00 0.00 0.00
	CHANNELS 6 Xposition Yposition Zposition Xrotation Yrotation Zrotation
	JOINT Spine
	{
		OFFSET 0.00000 0.84964 1.27446
		CHANNELS 3 Xrotation Yrotation Zrotation
		JOINT Spine1
		{
			OFFSET 0.00000 0.29508 1.67346
			CHANNELS 3 Xrotation Yrotation Zrotation
			JOINT Spine2
			{
				OFFSET 0.00000 0.14810 1.69281
				CHANNELS 3 Xrotation Yrotation Zrotation
				JOINT Spine3
				{
					OFFSET 0.00000 0.00000 1.69928
					CHANNELS 3 Xrotation Yrotation Zrotation
					JOINT Neck
					{
						OFFSET 0.00000 -0.63723 4.46061
						CHANNELS 3 Xrotation Yrotation Zrotation
						JOINT Head
						{
							OFFSET 0.00000 -0.40573 2.30101
							CHANNELS 3 Xrotation Yrotation Zrotation
							End Site
							{
								OFFSET 0.00000 0.00000 2.75071
							}
						}
					}
					JOINT RightShoulder
					{
						OFFSET -0.72014 -1.20022 3.88874
						CHANNELS 3 Xrotation Yrotation Zrotation
						JOINT RightArm
						{
							OFFSET -3.57668 0.00000 0.00000
							CHANNELS 3 Xrotation Yrotation Zrotation
							JOINT RightForeArm
							{
								OFFSET -5.92485 0.00000 0.00000
								CHANNELS 3 Xrotation Yrotation Zrotation
								JOINT RightHand
								{
									OFFSET -6.63013 0.00000 0.00000
									CHANNELS 3 Xrotation Yrotation Zrotation
									JOINT RightHandEnd
									{
										OFFSET -1.65321 0.00000 0.00000
										CHANNELS 3 Xrotation Yrotation Zrotation
										End Site
										{
											OFFSET -1.65321 0.00000 0.00000
										}
									}
									JOINT RightHandThumb1
									{
										OFFSET -0.66129 -1.10214 -0.44086
										CHANNELS 3 Yrotation Xrotation Zrotation
										End Site
										{
											OFFSET -1.59688 -0.42788 0.00000
										}
									}
								}
							}
						}
					}
					JOINT LeftShoulder
					{
						OFFSET 0.72014 -1.20022 3.88874
						CHANNELS 3 Xrotation Yrotation Zrotation
						JOINT LeftArm
						{
							OFFSET 3.57668 0.00000 0.00000
							CHANNELS 3 Xrotation Yrotation Zrotation
							JOINT LeftForeArm
							{
								OFFSET 5.92485 0.00000 0.00000
								CHANNELS 3 Xrotation Yrotation Zrotation
								JOINT LeftHand
								{
									OFFSET 6.63013 0.00000 0.00000
									CHANNELS 3 Xrotation Yrotation Zrotation
									JOINT LeftHandEnd
									{
										OFFSET 1.65321 0.00000 0.00000
										CHANNELS 3 Xrotation Yrotation Zrotation
										End Site
										{
											OFFSET 1.65321 0.00000 0.00000
										}
									}
									JOINT LeftHandThumb1
									{
										OFFSET 0.66129 -1.10214 -0.44086
										CHANNELS 3 Yrotation Xrotation Zrotation
										End Site
										{
											OFFSET 1.59688 -0.42788 0.00000
										}
									}
								}
							}
						}
					}
				}
			}
		}
	}
	JOINT RightUpLeg
	{
		OFFSET -2.13640 0.00000 -0.62412
		CHANNELS 3 Xrotation Yrotation Zrotation
		JOINT RightLeg
		{
			OFFSET 0.00000 0.00000 -11.49360
			CHANNELS 3 Xrotation Yrotation Zrotation
			JOINT RightFoot
			{
				OFFSET 0.00000 0.00000 -8.79036
				CHANNELS 3 Xrotation Yrotation Zrotation
				JOINT RightToeBase
				{
					OFFSET 0.00000 -3.94625 -1.43632
					CHANNELS 3 Xrotation Yrotation Zrotation
					End Site
					{
						OFFSET 0.00000 -1.72833 -0.00000
					}
				}
			}
		}
	}
	JOINT LeftUpLeg
	{
		OFFSET 2.13640 0.00000 -0.62412
		CHANNELS 3 Xrotation Yrotation Zrotation
		JOINT LeftLeg
		{
			OFFSET 0.00000 0.00000 -11.49360
			CHANNELS 3 Xrotation Yrotation Zrotation
			JOINT LeftFoot
			{
				OFFSET 0.00000 0.00000 -8.79036
				CHANNELS 3 Xrotation Yrotation Zrotation
				JOINT LeftToeBase
				{
					OFFSET 0.00000 -3.94625 -1.43632
					CHANNELS 3 Xrotation Yrotation Zrotation
					End Site
					{
						OFFSET 0.00000 -1.72833 -0.00000
					}
				}
			}
		}
	}
}
MOTION
Frames: 10
Frame Time: 0.008342
 0.7273 -2.3032 23.6298 -0.8284 -1.3931 178.8354 -2.7560 -2.9306 0.0623 -1.1423 -1.4426 -0.3237 6.3090 -2.3386 3.8741 0.3044 4.5634 -0.5446 -7.8886 2.4656 0.8971 2.4586 -1.0228 -3.9428 1.9016 7.4182 2.6161 -21.0849 -19.3358 -4.5037 0.0000 0.0000 13.8961 11.7199 -5.7631 -8.6969 0.0000 0.0000 -0.0000 0.0000 -0.0000 -0.0000 -3.3553 -3.4229 0.1927 -28.6947 23.2153 11.9522 -0.0000 -0.0000 -7.5183 -7.7434 -19.2427 16.5236 0.0000 -0.0000 -0.0000 0.0000 0.0000 0.0000 0.2830 1.5590 -49.3474 -3.0070 0.0000 -0.0000 19.3459 -11.5839 40.7302 -38.6918 0.0000 -0.0000 1.5626 -4.8355 19.3869 -5.9512 0.0000 -0.0000 0.0174 -4.8654 -22.7624 -5.0950 0.0000 -0.0000
 0.7314 -2.3004 23.6303 -0.8337 -1.4192 178.8407 -2.7836 -2.9546 0.0494 -1.1413 -1.4387 -0.3219 6.3097 -2.3319 3.8847 0.3099 4.5711 -0.5476 -7.8727 2.4657 0.9024 2.4763 -1.0321 -3.9357 1.9054 7.4138 2.6129 -21.0792 -19.3288 -4.4993 0.0000 0.0000 13.8890 11.6967 -5.7750 -8.6791 0.0000 -0.0000 -0.0000 0.0000 -0.0000 -0.0000 -3.3624 -3.4129 0.2044 -28.6843 23.1928 11.9508 -0.0000 -0.0000 -7.5221 -7.7497 -19.2321 16.5245 -0.0000 0.0000 0.0000 -0.0000 -0.0000 0.0000 0.3114 1.5376 -49.3573 -2.9807 0.0000 -0.0000 19.3343 -11.6887 40.8378 -38.2441 0.0000 -0.0000 1.5609 -4.8741 19.3660 -5.9455 0.0000 -0.0000 0.0125 -4.8694 -22.7422 -5.0951 0.0000 -0.0000
 0.7370 -2.2960 23.6310 -0.8012 -1.4604 178.8507 -2.7765 -2.9927 0.0269 -1.1386 -1.4327 -0.3184 6.3022 -2.3179 3.8981 0.3171 4.5746 -0.5472 -7.8487 2.4682 0.9083 2.5001 -1.0442 -3.9254 1.9114 7.4194 2.6071 -21.0716 -19.3290 -4.4985 0.0000 0.0000 13.8832 11.6651 -5.7855 -8.6604 0.0000 0.0000 -0.0000 -0.0000 -0.0000 0.0000 -3.3687 -3.4036 0.2164 -28.6703 23.1676 11.9507 -0.0000 -0.0000 -7.5241 -7.7592 -19.2198 16.5243 -0.0000 -0.0000 -0.0000 0.0000 -0.0000 0.0000 0.3966 1.5002 -49.3754 -2.9559 0.0000 -0.0000 19.3270 -11.8351 40.9902 -37.6292 0.0000 -0.0000 1.6045 -4.9308 19.3366 -5.9452 0.0000 -0.0000 0.0063 -4.8723 -22.7155 -5.0945 0.0000 -0.0000
 0.7437 -2.2908 23.6318 -0.7746 -1.5074 178.8608 -2.7823 -3.0352 0.0047 -1.1384 -1.4278 -0.3171 6.2984 -2.3029 3.9141 0.3259 4.5844 -0.5494 -7.8202 2.4675 0.9163 2.5291 -1.0584 -3.9102 1.9183 7.4173 2.6018 -21.0592 -19.3194 -4.4936 0.0000 0.0000 13.8793 11.6226 -5.7998 -8.6421 -0.0000 -0.0000 0.0000 0.0000 -0.0000 -0.0000 -3.3770 -3.3950 0.2341 -28.6521 23.1393 11.9494 -0.0000 -0.0000 -7.5237 -7.7692 -19.2106 16.5214 0.0000 0.0000 0.0000 -0.0000 0.0000 0.0000 0.4846 1.4618 -49.3945 -2.9157 0.0000 -0.0000 19.3145 -12.0190 41.1802 -36.8739 0.0000 -0.0000 1.6428 -4.9964 19.3116 -5.9431 0.0000 -0.0000 -0.0007 -4.8758 -22.6921 -5.0955 0.0000 -0.0000
 0.7515 -2.2848 23.6329 -0.7426 -1.5595 178.8731 -2.7905 -3.0835 -0.0241 -1.1357 -1.4207 -0.3148 6.2934 -2.2835 3.9334 0.3355 4.5947 -0.5517 -7.7853 2.4675 0.9269 2.5626 -1.0773 -3.8917 1.9267 7.4189 2.5961 -21.0449 -19.3118 -4.4901 0.0000 0.0000 13.8769 11.5741 -5.8083 -8.6213 -0.0000 0.0000 -0.0000 0.0000 -0.0000 -0.0000 -3.3845 -3.3831 0.2541 -28.6315 23.1031 11.9468 -0.0000 -0.0000 -7.5219 -7.7813 -19.2005 16.5185 0.0000 -0.0000 0.0000 -0.0000 0.0000 0.0000 0.5888 1.4185 -49.4177 -2.8731 0.0000 -0.0000 19.3041 -12.2327 41.4021 -36.0185 0.0000 -0.0000 1.6875 -5.0705 19.2806 -5.9377 0.0000 -0.0000 -0.0097 -4.8801 -22.6636 -5.0971 0.0000 -0.0000
 0.7602 -2.2783 23.6340 -0.7122 -1.6147 178.8839 -2.8045 -3.1331 -0.0524 -1.1337 -1.4139 -0.3139 6.2877 -2.2626 3.9556 0.3468 4.6068 -0.5549 -7.7455 2.4674 0.9388 2.5998 -1.0983 -3.8695 1.9343 7.4222 2.5898 -21.0265 -19.3033 -4.4866 0.0000 0.0000 13.8781 11.5199 -5.8139 -8.6007 0.0000 -0.0000 0.0000 -0.0000 -0.0000 0.0000 -3.3913 -3.3691 0.2775 -28.6089 23.0633 11.9416 -0.0000 -0.0000 -7.5165 -7.7936 -19.1918 16.5119 0.0000 0.0000 0.0000 0.0000 -0.0000 -0.0000 0.6949 1.3743 -49.4302 -2.8205 0.0000 -0.0000 19.2881 -12.4667 41.6338 -35.1132 0.0000 -0.0000 1.7308 -5.1506 19.2505 -5.9298 0.0000 -0.0000 -0.0198 -4.8847 -22.6338 -5.0999 0.0000 -0.0000
 0.7697 -2.2713 23.6350 -0.6674 -1.6701 178.8936 -2.8052 -3.1827 -0.0804 -1.1322 -1.4067 -0.3114 6.2791 -2.2379 3.9764 0.3579 4.6191 -0.5574 -7.6999 2.4670 0.9525 2.6399 -1.1222 -3.8446 1.9425 7.4310 2.5834 -21.0043 -19.2978 -4.4836 0.0000 0.0000 13.8810 11.4632 -5.8142 -8.5793 0.0000 -0.0000 0.0000 -0.0000 -0.0000 -0.0000 -3.3973 -3.3569 0.3016 -28.5858 23.0213 11.9387 -0.0000 -0.0000 -7.5099 -7.8051 -19.1829 16.5044 0.0000 -0.0000 0.0000 0.0000 0.0000 0.0000 0.8191 1.3281 -49.4450 -2.7700 0.0000 -0.0000 19.2744 -12.7048 41.8755 -34.2125 0.0000 -0.0000 1.7911 -5.2323 19.2231 -5.9221 0.0000 -0.0000 -0.0300 -4.8890 -22.6045 -5.1037 0.0000 -0.0000
 0.7797 -2.2642 23.6361 -0.6240 -1.7230 178.9000 -2.8085 -3.2272 -0.1070 -1.1306 -1.3997 -0.3085 6.2690 -2.2125 3.9993 0.3690 4.6306 -0.5605 -7.6506 2.4675 0.9669 2.6817 -1.1488 -3.8175 1.9513 7.4421 2.5767 -20.9806 -19.2903 -4.4806 0.0000 0.0000 13.8869 11.4064 -5.8109 -8.5577 -0.0000 -0.0000 0.0000 -0.0000 -0.0000 0.0000 -3.4015 -3.3455 0.3286 -28.5626 22.9809 11.9336 -0.0000 -0.0000 -7.5003 -7.8155 -19.1753 16.4942 0.0000 0.0000 -0.0000 0.0000 0.0000 -0.0000 0.9384 1.2821 -49.4571 -2.7204 0.0000 -0.0000 19.2603 -12.9317 42.1094 -33.3697 0.0000 -0.0000 1.8488 -5.3134 19.1967 -5.9106 0.0000 -0.0000 -0.0408 -4.8931 -22.5729 -5.1086 0.0000 -0.0000
 0.7900 -2.2574 23.6370 -0.5844 -1.7710 178.9037 -2.8136 -3.2640 -0.1302 -1.1295 -1.3924 -0.3065 6.2552 -2.1874 4.0231 0.3811 4.6401 -0.5650 -7.5994 2.4689 0.9828 2.7242 -1.1779 -3.7892 1.9600 7.4569 2.5709 -20.9547 -19.2820 -4.4780 0.0000 0.0000 13.8946 11.3529 -5.8039 -8.5360 -0.0000 -0.0000 0.0000 -0.0000 -0.0000 0.0000 -3.4064 -3.3357 0.3566 -28.5411 22.9429 11.9322 -0.0000 -0.0000 -7.4913 -7.8233 -19.1690 16.4813 -0.0000 -0.0000 -0.0000 -0.0000 -0.0000 0.0000 1.0467 1.2372 -49.4685 -2.6743 0.0000 -0.0000 19.2454 -13.1333 42.3232 -32.6278 0.0000 -0.0000 1.9009 -5.3909 19.1704 -5.8957 0.0000 -0.0000 -0.0512 -4.8971 -22.5390 -5.1151 0.0000 -0.0000
 0.8003 -2.2510 23.6377 -0.5420 -1.8129 178.9030 -2.8129 -3.2946 -0.1497 -1.1286 -1.3856 -0.3041 6.2396 -2.1600 4.0456 0.3910 4.6489 -0.5682 -7.5458 2.4710 1.0000 2.7660 -1.2105 -3.7614 1.9687 7.4769 2.5666 -20.9273 -19.2759 -4.4764 0.0000 0.0000 13.9014 11.3074 -5.7903 -8.5133 0.0000 0.0000 -0.0000 -0.0000 -0.0000 -0.0000 -3.4101 -3.3257 0.3877 -28.5191 22.9063 11.9257 -0.0000 -0.0000 -7.4804 -7.8306 -19.1612 16.4698 0.0000 0.0000 0.0000 0.0000 -0.0000 0.0000 1.1490 1.1923 -49.4878 -2.6392 0.0000 -0.0000 19.2351 -13.2959 42.5163 -32.0190 0.0000 -0.0000 1.9549 -5.4625 19.1473 -5.8790 0.0000 -0.0000 -0.0607 -4.9006 -22.5046 -5.1228 0.0000 -0.0000
